<svg xmlns="http://www.w3.org/2000/svg" viewBox="0 0 600 118.21"><defs><style>.cls-1{fill:#fb2b86;}.cls-2{fill:#202020;}</style></defs><g id="Layer_2" data-name="Layer 2"><g id="Layer_1-2" data-name="Layer 1"><polygon class="cls-1" points="42.17 45.61 19.17 91.22 19.17 91.22 0 91.22 23 45.61 42.17 45.61"/><polygon class="cls-1" points="84.34 0 61.34 45.61 61.34 45.61 42.17 45.61 65.17 0 84.34 0"/><polygon class="cls-1" points="95.42 45.61 72.42 91.22 72.42 91.22 53.25 91.22 76.25 45.61 95.42 45.61"/><polygon class="cls-1" points="137.6 0 114.59 45.61 114.59 45.61 95.42 45.61 118.43 0 137.6 0"/><path class="cls-2" d="M225.4,108.47H202.21l-3.57,7.91H177.49l25.38-50.32H225l25.38,50.32H229Zm-5.54-12.22L213.8,82.88l-6.05,13.37Z"/><path class="cls-2" d="M301.52,80.8H282.27v35.58H261.85V80.8H242.6V66.06h58.92Z"/><path class="cls-2" d="M341.62,108.47H318.43l-3.57,7.91H293.71l25.38-50.32h22.16l25.38,50.32H345.19Zm-5.54-12.22L330,82.88l-6,13.37Z"/><path class="cls-2" d="M421.82,101.43v14.95H370.05V66.06h20.42v35.37Z"/><path class="cls-2" d="M434.36,66.06l10.86,18.4L456,66.06h22.24L455.36,99.84v16.54H434.94V99.84L412.05,66.06Z"/><path class="cls-2" d="M600,80.8H580.75v35.58H560.33V80.8H541.09V66.06H600Z"/><path class="cls-2" d="M160.16,96c-1.87,4.28-6.47,6.73-13.07,6.73-8.75,0-14-4.31-14-11.5s5.25-11.5,14-11.5c6.6,0,11.2,2.45,13.07,6.73h21.26c-2.37-14.3-15.61-22.11-34.33-22.11-20.7,0-34.7,9.56-34.7,26.88s14,26.88,34.7,26.88c18.72,0,32-7.81,34.33-22.11Z"/><path class="cls-2" d="M501.28,101.42c1.68,2.81,4.09,3.87,8.68,3.87,4.38,0,6.64-1.14,6.64-3.27,0-1.44-.73-2.2-2.26-2.66s-2.48-.6-13.78-1.74a71.83,71.83,0,0,1-15.32-3.12c-6.05-2-9.33-6.46-9.33-12.69,0-11.47,10.72-17.47,31.13-17.47q15.54,0,23,5c4,2.66,5.84,5.55,7.37,11.48H513.1c-1.17-3.2-3.94-4.64-8.75-4.64-3.87,0-6.27,1.29-6.27,3.34,0,2.51,1.6,3,16.62,4.56,8.6.91,11.08,1.45,15.24,3,5.91,2.36,9,6.92,9,13.22,0,12.08-10.43,17.86-32.23,17.86-10.43,0-18.3-1.45-23.19-4.26-5.25-3-7.36-6.23-8-12.53Z"/></g></g></svg>