<svg xmlns="http://www.w3.org/2000/svg" width="660.897" height="169.222" viewBox="0 0 660.897 169.222">
  <g>
    <g>
      <path d="M248.273,119.479h-25.54l-3.936,8.709H195.506l27.95-55.42h24.416l27.949,55.42H252.208Zm-6.1-13.459L235.5,91.294l-6.666,14.726Z" fill="#ededee"/>
      <path d="M332.119,89h-21.2v39.19H288.428V89h-21.2V72.768h64.894Z" fill="#ededee"/>
      <path d="M376.291,119.479H350.75l-3.935,8.709H323.524l27.949-55.42h24.416l27.949,55.42H380.226Zm-6.105-13.459L363.52,91.294l-6.666,14.726Z" fill="#ededee"/>
      <path d="M464.632,111.72v16.468H407.609V72.768H430.1V111.72Z" fill="#ededee"/>
      <path d="M478.444,72.768l11.967,20.268L502.3,72.768h24.5l-25.219,37.21v18.21H479.087v-18.21l-25.219-37.21Z" fill="#ededee"/>
      <path d="M660.9,89h-21.2v39.19H617.206V89H596V72.768H660.9Z" fill="#ededee"/>
      <path d="M176.415,105.731c-2.06,4.716-7.13,7.415-14.391,7.415-9.638,0-15.421-4.751-15.421-12.667s5.783-12.668,15.421-12.668c7.261,0,12.33,2.7,14.391,7.414h23.416c-2.608-15.75-17.187-24.358-37.807-24.358-22.81,0-38.231,10.531-38.231,29.612s15.421,29.61,38.231,29.61c20.62,0,35.2-8.608,37.807-24.358Z" fill="#ededee"/>
      <path d="M552.161,111.708c1.848,3.1,4.5,4.269,9.558,4.269,4.82,0,7.309-1.256,7.309-3.6,0-1.59-.8-2.428-2.489-2.929s-2.731-.67-15.18-1.925a78.624,78.624,0,0,1-16.866-3.431c-6.666-2.177-10.281-7.114-10.281-13.977,0-12.637,11.806-19.249,34.295-19.249q17.108,0,25.3,5.524c4.418,2.929,6.426,6.11,8.112,12.637H565.173c-1.285-3.515-4.337-5.105-9.637-5.105-4.258,0-6.908,1.423-6.908,3.683,0,2.761,1.767,3.263,18.312,5.021,9.477,1,12.207,1.59,16.785,3.347,6.507,2.595,9.879,7.616,9.879,14.563,0,13.307-11.485,19.667-35.5,19.667-11.486,0-20.16-1.59-25.541-4.686-5.783-3.265-8.112-6.863-8.834-13.81Z" fill="#ededee"/>
    </g>
    <g>
      <g>
        <g>
          <polygon points="46.452 50.239 21.115 100.478 21.114 100.478 0 100.478 25.337 50.239 46.452 50.239" fill="#ffa683"/>
          <polygon points="92.903 0 67.567 50.239 67.565 50.239 46.452 50.239 71.788 0 92.903 0" fill="#ffa683"/>
        </g>
        <g>
          <polygon points="105.11 50.239 79.773 100.478 79.772 100.478 58.658 100.478 83.995 50.239 105.11 50.239" fill="#ffa683"/>
          <polygon points="151.561 0 126.225 50.239 126.223 50.239 105.11 50.239 130.446 0 151.561 0" fill="#ffa683"/>
        </g>
      </g>
      <g>
        <path d="M332.494,168.71v-20.1H343.4c4.1,0,6.479,2.2,6.479,5.968,0,3.676-2.441,5.967-6.359,5.967H335.6v8.166Zm10.125-10.788a4.442,4.442,0,0,0,3.014-.724,3.215,3.215,0,0,0,1.145-2.621,3.177,3.177,0,0,0-1.145-2.623,4.442,4.442,0,0,0-3.014-.723H335.6v6.691Z" fill="#ffa683"/>
        <path d="M356.482,168.71h-3.1v-20.1h11.09c4.43,0,6.72,1.9,6.72,5.636,0,2.2-.784,3.465-2.833,4.7,2.08,1.025,2.441,1.9,2.622,6.479.121,2.26.332,2.683,1.205,2.622v.663h-3.827a16.5,16.5,0,0,1-.512-4.008c-.211-3.375-1.115-4.4-3.918-4.46h-7.443Zm7.715-11.09a5.2,5.2,0,0,0,2.591-.482,3.487,3.487,0,0,0,0-5.425,5.2,5.2,0,0,0-2.591-.482h-7.715v6.389Z" fill="#ffa683"/>
        <path d="M376.25,168.71v-20.1h3.105v20.1Z" fill="#ffa683"/>
        <path d="M400.781,168.71,387.4,152.346V168.71h-3.1v-20.1h3.887l13.23,16.214V148.609h3.1v20.1Z" fill="#ffa683"/>
        <path d="M415.155,168.71v-17.3H407.47v-2.8H426v2.8h-7.745v17.3Z" fill="#ffa683"/>
        <path d="M459.545,158.8a10.472,10.472,0,0,1-3.014,7.443,11.689,11.689,0,0,1-8.317,2.983c-6.781,0-11.3-4.219-11.3-10.577,0-6.329,4.52-10.548,11.27-10.548C455.115,148.1,459.545,152.286,459.545,158.8Zm-19.528-.151c0,4.791,3.254,7.956,8.2,7.956,4.912,0,8.227-3.165,8.227-7.836,0-4.912-3.225-8.046-8.227-8.046C443.271,150.719,440.017,153.883,440.017,158.645Z" fill="#ffa683"/>
        <path d="M480.127,168.71l-13.38-16.364V168.71h-3.1v-20.1h3.887l13.23,16.214V148.609h3.1v20.1Z" fill="#ffa683"/>
        <path d="M497.846,148.609h8.981c3.194,0,5.092.423,6.72,1.477,2.381,1.567,3.646,4.521,3.646,8.619,0,3.677-1.024,6.419-3.044,8.137-1.687,1.416-3.465,1.868-7.353,1.868h-8.95Zm9.221,17.3c2.562,0,3.888-.331,4.973-1.3,1.356-1.206,2.049-3.195,2.049-5.967,0-2.743-.693-4.732-2.049-5.937-1.085-.965-2.411-1.3-4.973-1.3H500.95v14.5Z" fill="#ffa683"/>
        <path d="M521.653,168.71v-20.1h16.454v2.8h-13.35v5.636h12.566v2.8H524.757v6.057h13.621v2.8Z" fill="#ffa683"/>
        <path d="M564.235,168.71V152.2l-8.107,16.514h-2.772l-7.9-16.514V168.71h-3.1v-20.1h4.46l8.046,17,8.167-17h4.31v20.1Z" fill="#ffa683"/>
        <path d="M576.439,162.924l-2.622,5.786h-3.526l9.343-20.1h3.5l9.4,20.1h-3.737l-2.622-5.786Zm4.822-10.849-3.677,8.228H585Z" fill="#ffa683"/>
        <path d="M611.668,168.71l-13.381-16.364V168.71h-3.1v-20.1h3.888l13.23,16.214V148.609h3.1v20.1Z" fill="#ffa683"/>
        <path d="M620.347,148.609h8.98c3.194,0,5.093.423,6.721,1.477,2.38,1.567,3.646,4.521,3.646,8.619,0,3.677-1.025,6.419-3.044,8.137-1.688,1.416-3.465,1.868-7.353,1.868h-8.95Zm9.221,17.3c2.562,0,3.888-.331,4.973-1.3,1.356-1.206,2.049-3.195,2.049-5.967,0-2.743-.693-4.732-2.049-5.937-1.085-.965-2.411-1.3-4.973-1.3h-6.117v14.5Z" fill="#ffa683"/>
      </g>
    </g>
  </g>
</svg>
