<svg xmlns="http://www.w3.org/2000/svg" width="660.897" height="169.222" viewBox="0 0 660.897 169.222">
  <g>
    <g>
      <path d="M248.273,119.479h-25.54l-3.936,8.709H195.506l27.95-55.42h24.416l27.949,55.42H252.208Zm-6.1-13.459L235.5,91.294l-6.666,14.726Z" fill="#ededee"/>
      <path d="M332.119,89h-21.2v39.19H288.428V89h-21.2V72.768h64.894Z" fill="#ededee"/>
      <path d="M376.291,119.479H350.75l-3.935,8.709H323.524l27.949-55.42h24.416l27.949,55.42H380.226Zm-6.105-13.459L363.52,91.294l-6.666,14.726Z" fill="#ededee"/>
      <path d="M464.632,111.72v16.468H407.609V72.768H430.1V111.72Z" fill="#ededee"/>
      <path d="M478.444,72.768l11.967,20.268L502.3,72.768h24.5l-25.219,37.21v18.21H479.087v-18.21l-25.219-37.21Z" fill="#ededee"/>
      <path d="M660.9,89h-21.2v39.19H617.206V89H596V72.768H660.9Z" fill="#ededee"/>
      <path d="M176.415,105.731c-2.06,4.716-7.13,7.415-14.391,7.415-9.638,0-15.421-4.751-15.421-12.667s5.783-12.668,15.421-12.668c7.261,0,12.33,2.7,14.391,7.414h23.416c-2.608-15.75-17.187-24.358-37.807-24.358-22.81,0-38.231,10.531-38.231,29.612s15.421,29.61,38.231,29.61c20.62,0,35.2-8.608,37.807-24.358Z" fill="#ededee"/>
      <path d="M552.161,111.708c1.848,3.1,4.5,4.269,9.558,4.269,4.82,0,7.309-1.256,7.309-3.6,0-1.59-.8-2.428-2.489-2.929s-2.731-.67-15.18-1.925a78.624,78.624,0,0,1-16.866-3.431c-6.666-2.177-10.281-7.114-10.281-13.977,0-12.637,11.806-19.249,34.295-19.249q17.108,0,25.3,5.524c4.418,2.929,6.426,6.11,8.112,12.637H565.173c-1.285-3.515-4.337-5.105-9.637-5.105-4.258,0-6.908,1.423-6.908,3.683,0,2.761,1.767,3.263,18.312,5.021,9.477,1,12.207,1.59,16.785,3.347,6.507,2.595,9.879,7.616,9.879,14.563,0,13.307-11.485,19.667-35.5,19.667-11.486,0-20.16-1.59-25.541-4.686-5.783-3.265-8.112-6.863-8.834-13.81Z" fill="#ededee"/>
    </g>
    <g>
      <g>
        <g>
          <polygon points="46.452 50.239 21.115 100.478 21.114 100.478 0 100.478 25.337 50.239 46.452 50.239" fill="#198ddb"/>
          <polygon points="92.903 0 67.567 50.239 67.565 50.239 46.452 50.239 71.788 0 92.903 0" fill="#198ddb"/>
        </g>
        <g>
          <polygon points="105.11 50.239 79.773 100.478 79.772 100.478 58.658 100.478 83.995 50.239 105.11 50.239" fill="#198ddb"/>
          <polygon points="151.561 0 126.225 50.239 126.223 50.239 105.11 50.239 130.446 0 151.561 0" fill="#198ddb"/>
        </g>
      </g>
      <g>
        <path d="M233.527,168.71V152.2L225.42,168.71h-2.772l-7.9-16.514V168.71h-3.1v-20.1h4.46l8.046,17,8.167-17h4.31v20.1Z" fill="#198ddb"/>
        <path d="M245.731,162.924l-2.622,5.786h-3.526l9.343-20.1h3.5l9.4,20.1h-3.737l-2.622-5.786Zm4.822-10.849-3.677,8.228h7.414Z" fill="#198ddb"/>
        <path d="M280.96,168.71l-13.381-16.364V168.71h-3.1v-20.1h3.888l13.23,16.214V148.609h3.1v20.1Z" fill="#198ddb"/>
        <path d="M308.383,148.609v13.019a6.535,6.535,0,0,1-2.743,5.786,11,11,0,0,1-6.629,1.808,10.654,10.654,0,0,1-7.052-2.139,6.565,6.565,0,0,1-2.321-5.455V148.609h3.105v12.9c0,3.225,2.32,5.094,6.268,5.094s6.268-1.869,6.268-5.094v-12.9Z" fill="#198ddb"/>
        <path d="M313.325,168.71v-20.1h15.611v2.8H316.429v5.666H327.4v2.8h-10.97v8.83Z" fill="#198ddb"/>
        <path d="M334.36,162.924l-2.622,5.786h-3.526l9.343-20.1h3.5l9.4,20.1h-3.737l-2.622-5.786Zm4.822-10.849-3.677,8.228h7.414Z" fill="#198ddb"/>
        <path d="M372.482,160.784c-1,5.515-4.581,8.438-10.307,8.438-6.6,0-10.758-4.068-10.758-10.547s4.189-10.578,10.819-10.578a10.458,10.458,0,0,1,7.684,2.8,8.794,8.794,0,0,1,2.381,4.912h-3.134c-.693-3.285-3.194-5.093-6.961-5.093-4.611,0-7.685,3.164-7.685,7.956,0,4.7,3.134,7.926,7.715,7.926a7.169,7.169,0,0,0,5.786-2.532,6.729,6.729,0,0,0,1.326-3.285Z" fill="#198ddb"/>
        <path d="M381.462,168.71v-17.3h-7.685v-2.8h18.534v2.8h-7.745v17.3Z" fill="#198ddb"/>
        <path d="M414.008,148.609v13.019a6.534,6.534,0,0,1-2.742,5.786,11.006,11.006,0,0,1-6.63,1.808,10.656,10.656,0,0,1-7.052-2.139,6.564,6.564,0,0,1-2.32-5.455V148.609h3.1v12.9c0,3.225,2.32,5.094,6.268,5.094s6.269-1.869,6.269-5.094v-12.9Z" fill="#198ddb"/>
        <path d="M422.055,168.71h-3.1v-20.1h11.09c4.429,0,6.72,1.9,6.72,5.636,0,2.2-.784,3.465-2.833,4.7,2.08,1.025,2.441,1.9,2.622,6.479.121,2.26.331,2.683,1.2,2.622v.663h-3.827a16.4,16.4,0,0,1-.512-4.008c-.211-3.375-1.115-4.4-3.918-4.46h-7.443Zm7.714-11.09a5.2,5.2,0,0,0,2.592-.482,3.487,3.487,0,0,0,0-5.425,5.2,5.2,0,0,0-2.592-.482h-7.714v6.389Z" fill="#198ddb"/>
        <path d="M441.823,168.71v-20.1h16.454v2.8h-13.35v5.636h12.567v2.8H444.927v6.057h13.622v2.8Z" fill="#198ddb"/>
        <path d="M462.527,148.609h8.98c3.194,0,5.093.423,6.72,1.477,2.381,1.567,3.647,4.521,3.647,8.619,0,3.677-1.025,6.419-3.044,8.137-1.688,1.416-3.465,1.868-7.353,1.868h-8.95Zm9.221,17.3c2.562,0,3.888-.331,4.973-1.3,1.356-1.206,2.049-3.195,2.049-5.967,0-2.743-.693-4.732-2.049-5.937-1.085-.965-2.411-1.3-4.973-1.3h-6.117v14.5Z" fill="#198ddb"/>
        <path d="M498.93,162.924l-2.622,5.786h-3.526l9.342-20.1h3.5l9.4,20.1h-3.737l-2.622-5.786Zm4.822-10.849-3.677,8.228h7.414Z" fill="#198ddb"/>
        <path d="M517.674,168.71v-20.1h10.909c4.1,0,6.48,2.2,6.48,5.968,0,3.676-2.441,5.967-6.359,5.967h-7.926v8.166ZM527.8,157.922a4.439,4.439,0,0,0,3.013-.724,3.213,3.213,0,0,0,1.146-2.621,3.175,3.175,0,0,0-1.146-2.623,4.439,4.439,0,0,0-3.013-.723h-7.022v6.691Z" fill="#198ddb"/>
        <path d="M538.558,168.71v-20.1h10.91c4.1,0,6.479,2.2,6.479,5.968,0,3.676-2.441,5.967-6.359,5.967h-7.926v8.166Zm10.126-10.788a4.439,4.439,0,0,0,3.013-.724,3.213,3.213,0,0,0,1.146-2.621,3.175,3.175,0,0,0-1.146-2.623,4.439,4.439,0,0,0-3.013-.723h-7.022v6.691Z" fill="#198ddb"/>
        <path d="M561.7,162.924l-2.622,5.786h-3.526l9.342-20.1h3.5l9.4,20.1h-3.737l-2.622-5.786Zm4.822-10.849-3.677,8.228h7.413Z" fill="#198ddb"/>
        <path d="M583.551,168.71h-3.1v-20.1h11.09c4.43,0,6.72,1.9,6.72,5.636,0,2.2-.783,3.465-2.832,4.7,2.079,1.025,2.441,1.9,2.622,6.479.12,2.26.331,2.683,1.2,2.622v.663h-3.827a16.432,16.432,0,0,1-.513-4.008c-.211-3.375-1.115-4.4-3.917-4.46h-7.444Zm7.715-11.09a5.207,5.207,0,0,0,2.592-.482,3.488,3.488,0,0,0,0-5.425,5.207,5.207,0,0,0-2.592-.482h-7.715v6.389Z" fill="#198ddb"/>
        <path d="M603.32,168.71v-20.1h16.454v2.8h-13.35v5.636h12.567v2.8H606.424v6.057h13.621v2.8Z" fill="#198ddb"/>
        <path d="M624.023,168.71v-20.1h3.1v17.3h12.567v2.8Z" fill="#198ddb"/>
      </g>
    </g>
  </g>
</svg>
