<svg xmlns="http://www.w3.org/2000/svg" viewBox="0 0 292.61 77.87"><defs><style>.cls-1,.cls-3{fill:#ff0040;}.cls-2{fill:#ededee;}.cls-3{font-size:13.34px;font-family:NimbusSanExt-Reg, Nimbus Sans Extd;}.cls-4{letter-spacing:0.01em;}.cls-5{letter-spacing:0.01em;}</style></defs><g id="Layer_2" data-name="Layer 2"><g id="Layer_1-2" data-name="Layer 1"><polygon class="cls-1" points="20.57 22.24 9.35 44.49 9.35 44.49 0 44.49 11.22 22.24 20.57 22.24"/><polygon class="cls-1" points="41.13 0 29.91 22.24 29.91 22.24 20.57 22.24 31.78 0 41.13 0"/><polygon class="cls-1" points="46.54 22.24 35.32 44.49 35.32 44.49 25.97 44.49 37.19 22.24 46.54 22.24"/><polygon class="cls-1" points="67.1 0 55.89 22.24 55.89 22.24 46.54 22.24 57.76 0 67.1 0"/><path class="cls-2" d="M109.92,52.9H98.62l-1.75,3.86H86.56L98.94,32.22h10.81l12.37,24.54H111.67Zm-2.7-6-3-6.52-3,6.52Z"/><path class="cls-2" d="M147.05,39.4h-9.39V56.76h-10V39.4h-9.39V32.22h28.74Z"/><path class="cls-2" d="M166.6,52.9H155.3l-1.75,3.86H143.24l12.38-24.54h10.81L178.8,56.76H168.35Zm-2.7-6-3-6.52L158,46.94Z"/><path class="cls-2" d="M205.72,49.46v7.3H180.47V32.22h10V49.46Z"/><path class="cls-2" d="M211.83,32.22l5.3,9,5.26-9h10.85L222.07,48.69v8.07h-9.95V48.69L201,32.22Z"/><path class="cls-2" d="M292.61,39.4h-9.38V56.76h-10V39.4h-9.39V32.22h28.73Z"/><path class="cls-2" d="M78.11,46.81C77.2,48.9,75,50.1,71.74,50.1c-4.27,0-6.83-2.11-6.83-5.61s2.56-5.61,6.83-5.61c3.21,0,5.46,1.19,6.37,3.28H88.48c-1.16-7-7.61-10.78-16.74-10.78-10.1,0-16.93,4.66-16.93,13.11S61.64,57.6,71.74,57.6c9.13,0,15.58-3.81,16.74-10.79Z"/><path class="cls-2" d="M244.47,49.46c.82,1.37,2,1.89,4.23,1.89s3.24-.56,3.24-1.59c0-.71-.36-1.08-1.1-1.3s-1.21-.3-6.72-.85a35.19,35.19,0,0,1-7.47-1.52,6.14,6.14,0,0,1-4.55-6.19c0-5.6,5.22-8.52,15.18-8.52q7.58,0,11.2,2.44c2,1.3,2.85,2.71,3.59,5.6H250.23c-.57-1.56-1.92-2.26-4.27-2.26-1.88,0-3.05.63-3.05,1.63,0,1.22.78,1.44,8.1,2.22,4.2.45,5.41.7,7.44,1.48a6.49,6.49,0,0,1,4.37,6.45c0,5.89-5.08,8.71-15.72,8.71-5.08,0-8.92-.71-11.31-2.08-2.56-1.44-3.59-3-3.91-6.11Z"/><text class="cls-3" transform="translate(146.21 74.53)">P<tspan class="cls-4" x="9.25" y="0">R</tspan><tspan x="19.37" y="0">I</tspan><tspan class="cls-4" x="22.94" y="0">N</tspan><tspan x="34.2" y="0">T ON </tspan><tspan class="cls-5" x="73.21" y="0">D</tspan><tspan x="83.75" y="0">E</tspan><tspan class="cls-4" x="92.92" y="0">M</tspan><tspan x="106.29" y="0">AND</tspan></text></g></g></svg>