<svg xmlns="http://www.w3.org/2000/svg" width="660.897" height="168.92" viewBox="0 0 660.897 168.92">
  <g>
    <g>
      <path d="M248.273,119.479h-25.54l-3.936,8.709H195.506l27.95-55.42h24.416l27.949,55.42H252.208Zm-6.1-13.459L235.5,91.294l-6.666,14.726Z" fill="#ededee"/>
      <path d="M332.119,89h-21.2v39.19H288.428V89h-21.2V72.768h64.894Z" fill="#ededee"/>
      <path d="M376.291,119.479H350.75l-3.935,8.709H323.524l27.949-55.42h24.416l27.949,55.42H380.226Zm-6.105-13.459L363.52,91.294l-6.666,14.726Z" fill="#ededee"/>
      <path d="M464.632,111.72v16.468H407.609V72.768H430.1V111.72Z" fill="#ededee"/>
      <path d="M478.444,72.768l11.967,20.268L502.3,72.768h24.5l-25.219,37.21v18.21H479.087v-18.21l-25.219-37.21Z" fill="#ededee"/>
      <path d="M660.9,89h-21.2v39.19H617.206V89H596V72.768H660.9Z" fill="#ededee"/>
      <path d="M176.415,105.731c-2.06,4.716-7.13,7.415-14.391,7.415-9.638,0-15.421-4.751-15.421-12.667s5.783-12.668,15.421-12.668c7.261,0,12.33,2.7,14.391,7.414h23.416c-2.608-15.75-17.187-24.358-37.807-24.358-22.81,0-38.231,10.531-38.231,29.612s15.421,29.61,38.231,29.61c20.62,0,35.2-8.608,37.807-24.358Z" fill="#ededee"/>
      <path d="M552.161,111.708c1.848,3.1,4.5,4.269,9.558,4.269,4.82,0,7.309-1.256,7.309-3.6,0-1.59-.8-2.428-2.489-2.929s-2.731-.67-15.18-1.925a78.624,78.624,0,0,1-16.866-3.431c-6.666-2.177-10.281-7.114-10.281-13.977,0-12.637,11.806-19.249,34.295-19.249q17.108,0,25.3,5.524c4.418,2.929,6.426,6.11,8.112,12.637H565.173c-1.285-3.515-4.337-5.105-9.637-5.105-4.258,0-6.908,1.423-6.908,3.683,0,2.761,1.767,3.263,18.312,5.021,9.477,1,12.207,1.59,16.785,3.347,6.507,2.595,9.879,7.616,9.879,14.563,0,13.307-11.485,19.667-35.5,19.667-11.486,0-20.16-1.59-25.541-4.686-5.783-3.265-8.112-6.863-8.834-13.81Z" fill="#ededee"/>
    </g>
    <g>
      <g>
        <g>
          <polygon points="46.452 50.239 21.115 100.478 21.114 100.478 0 100.478 25.337 50.239 46.452 50.239" fill="#f7cef1"/>
          <polygon points="92.903 0 67.567 50.239 67.565 50.239 46.452 50.239 71.788 0 92.903 0" fill="#f7cef1"/>
        </g>
        <g>
          <polygon points="105.11 50.239 79.773 100.478 79.772 100.478 58.658 100.478 83.995 50.239 105.11 50.239" fill="#f7cef1"/>
          <polygon points="151.561 0 126.225 50.239 126.223 50.239 105.11 50.239 130.446 0 151.561 0" fill="#f7cef1"/>
        </g>
      </g>
      <g>
        <path d="M358.349,168.408v-9.462h-12.3v9.462h-3.1v-20.1h3.1v8.016h12.3v-8.016h3.1v20.1Z" fill="#f7cef1"/>
        <path d="M366.4,168.408v-20.1h16.454v2.8H369.5v5.636h12.567v2.8H369.5v6.057h13.622v2.8Z" fill="#f7cef1"/>
        <path d="M391.739,162.622l-2.621,5.786h-3.526l9.342-20.1h3.495l9.4,20.1H404.1l-2.622-5.786Zm4.822-10.849L392.885,160H400.3Z" fill="#f7cef1"/>
        <path d="M410.483,168.408v-20.1h3.1v17.3h12.567v2.8Z" fill="#f7cef1"/>
        <path d="M432.091,168.408v-17.3h-7.685v-2.8h18.533v2.8h-7.745v17.3Z" fill="#f7cef1"/>
        <path d="M461.292,168.408v-9.462H449v9.462h-3.1v-20.1H449v8.016h12.3v-8.016h3.1v20.1Z" fill="#f7cef1"/>
        <path d="M496.43,158.765a12.257,12.257,0,0,1-1.658,4.972l5.184,4.671h-4.34l-2.652-2.44a10.475,10.475,0,0,1-7.383,2.832,9.434,9.434,0,0,1-6.118-1.989,5.11,5.11,0,0,1-1.837-4.1c0-2.682,1.506-4.46,5.122-6.058-1.808-1.988-2.14-2.652-2.14-4.1,0-2.652,2.26-4.46,5.576-4.46,3.074,0,5.033,1.627,5.033,4.159a4.455,4.455,0,0,1-1.688,3.5,9.408,9.408,0,0,1-2.17,1.326l5.364,4.853a6.143,6.143,0,0,0,.724-3.165Zm-11.814-.3c-2.531.843-3.977,2.32-3.977,3.978,0,2.229,2.26,3.857,5.334,3.857a6.384,6.384,0,0,0,5.093-2.049Zm3.8-5.907c0-1.236-.964-2.049-2.441-2.049s-2.441.753-2.441,1.9c0,1.054.3,1.506,2.049,3.013C487.48,154.757,488.414,153.823,488.414,152.557Z" fill="#f7cef1"/>
        <path d="M511.106,148.308h10c2.772,0,3.918.181,5.153.753a4.767,4.767,0,0,1,2.471,4.49,4.362,4.362,0,0,1-2.5,4.129,4.857,4.857,0,0,1,3.345,4.822,5.439,5.439,0,0,1-3.074,5.153c-1.3.6-2.441.753-5.243.753H511.106Zm10.758,8.347c2.682,0,3.918-.9,3.918-2.862s-1.236-2.863-3.918-2.863h-7.655v5.725Zm.452,9.132a4.627,4.627,0,0,0,3.014-.694,3.437,3.437,0,0,0,0-5.122,4.627,4.627,0,0,0-3.014-.694h-8.107v6.51Z" fill="#f7cef1"/>
        <path d="M533.707,168.408v-20.1h16.455v2.8h-13.35v5.636h12.566v2.8H536.812v6.057h13.621v2.8Z" fill="#f7cef1"/>
        <path d="M559.051,162.622l-2.621,5.786H552.9l9.342-20.1h3.5l9.4,20.1h-3.737l-2.623-5.786Zm4.823-10.849L560.2,160h7.413Z" fill="#f7cef1"/>
        <path d="M595.727,148.308v13.018a6.536,6.536,0,0,1-2.742,5.786,11.01,11.01,0,0,1-6.63,1.808,10.648,10.648,0,0,1-7.052-2.139,6.565,6.565,0,0,1-2.321-5.455V148.308h3.1v12.9c0,3.224,2.32,5.093,6.269,5.093s6.268-1.869,6.268-5.093v-12.9Z" fill="#f7cef1"/>
        <path d="M606.364,168.408v-17.3h-7.685v-2.8h18.534v2.8h-7.745v17.3Z" fill="#f7cef1"/>
        <path d="M627.73,168.408v-8.347l-8.86-11.753h4.008l6.48,9.1,6.539-9.1h3.8l-8.859,11.753v8.347Z" fill="#f7cef1"/>
      </g>
    </g>
  </g>
</svg>
