<svg xmlns="http://www.w3.org/2000/svg" width="660.897" height="169.222" viewBox="0 0 660.897 169.222">
  <g>
    <g>
      <path d="M248.273,119.479h-25.54l-3.936,8.709H195.506l27.95-55.42h24.416l27.949,55.42H252.208Zm-6.1-13.459L235.5,91.294l-6.666,14.726Z" fill="#ededee"/>
      <path d="M332.119,89h-21.2v39.19H288.428V89h-21.2V72.768h64.894Z" fill="#ededee"/>
      <path d="M376.291,119.479H350.75l-3.935,8.709H323.524l27.949-55.42h24.416l27.949,55.42H380.226Zm-6.105-13.459L363.52,91.294l-6.666,14.726Z" fill="#ededee"/>
      <path d="M464.632,111.72v16.468H407.609V72.768H430.1V111.72Z" fill="#ededee"/>
      <path d="M478.444,72.768l11.967,20.268L502.3,72.768h24.5l-25.219,37.21v18.21H479.087v-18.21l-25.219-37.21Z" fill="#ededee"/>
      <path d="M660.9,89h-21.2v39.19H617.206V89H596V72.768H660.9Z" fill="#ededee"/>
      <path d="M176.415,105.731c-2.06,4.716-7.13,7.415-14.391,7.415-9.638,0-15.421-4.751-15.421-12.667s5.783-12.668,15.421-12.668c7.261,0,12.33,2.7,14.391,7.414h23.416c-2.608-15.75-17.187-24.358-37.807-24.358-22.81,0-38.231,10.531-38.231,29.612s15.421,29.61,38.231,29.61c20.62,0,35.2-8.608,37.807-24.358Z" fill="#ededee"/>
      <path d="M552.161,111.708c1.848,3.1,4.5,4.269,9.558,4.269,4.82,0,7.309-1.256,7.309-3.6,0-1.59-.8-2.428-2.489-2.929s-2.731-.67-15.18-1.925a78.624,78.624,0,0,1-16.866-3.431c-6.666-2.177-10.281-7.114-10.281-13.977,0-12.637,11.806-19.249,34.295-19.249q17.108,0,25.3,5.524c4.418,2.929,6.426,6.11,8.112,12.637H565.173c-1.285-3.515-4.337-5.105-9.637-5.105-4.258,0-6.908,1.423-6.908,3.683,0,2.761,1.767,3.263,18.312,5.021,9.477,1,12.207,1.59,16.785,3.347,6.507,2.595,9.879,7.616,9.879,14.563,0,13.307-11.485,19.667-35.5,19.667-11.486,0-20.16-1.59-25.541-4.686-5.783-3.265-8.112-6.863-8.834-13.81Z" fill="#ededee"/>
    </g>
    <g>
      <g>
        <g>
          <polygon points="46.452 50.239 21.115 100.478 21.114 100.478 0 100.478 25.337 50.239 46.452 50.239" fill="#638a8a"/>
          <polygon points="92.903 0 67.567 50.239 67.565 50.239 46.452 50.239 71.788 0 92.903 0" fill="#638a8a"/>
        </g>
        <g>
          <polygon points="105.11 50.239 79.773 100.478 79.772 100.478 58.658 100.478 83.995 50.239 105.11 50.239" fill="#638a8a"/>
          <polygon points="151.561 0 126.225 50.239 126.223 50.239 105.11 50.239 130.446 0 151.561 0" fill="#638a8a"/>
        </g>
      </g>
      <g>
        <path d="M508.786,168.71v-20.1H524.4v2.8H511.89v5.666h10.969v2.8H511.89v8.83Z" fill="#638a8a"/>
        <path d="M527.469,168.71v-20.1h3.1v20.1Z" fill="#638a8a"/>
        <path d="M541.211,168.71v-17.3h-7.685v-2.8H552.06v2.8h-7.744v17.3Z" fill="#638a8a"/>
        <path d="M571.5,168.71l-13.38-16.364V168.71h-3.1v-20.1H558.9l13.229,16.214V148.609h3.1v20.1Z" fill="#638a8a"/>
        <path d="M580.176,168.71v-20.1H596.63v2.8H583.28v5.636h12.567v2.8H583.28v6.057H596.9v2.8Z" fill="#638a8a"/>
        <path d="M614.29,154.456a3.06,3.06,0,0,0-1.235-2.532,6.738,6.738,0,0,0-4.31-1.205c-3.255,0-5.394,1.265-5.394,3.164a2.19,2.19,0,0,0,1.265,1.959,8.942,8.942,0,0,0,3.165.9l4.128.723a9.947,9.947,0,0,1,4.34,1.507,4.675,4.675,0,0,1,1.868,3.858,5.836,5.836,0,0,1-3.043,5.062,11.07,11.07,0,0,1-5.907,1.326c-3.857,0-6.57-.9-8.046-2.682-1-1.2-1.356-2.35-1.447-4.61H602.9a3.735,3.735,0,0,0,1.175,3.1c1.115,1.056,2.863,1.568,5.214,1.568,3.435,0,5.605-1.327,5.605-3.466,0-1.477-1.085-2.29-3.647-2.742l-3.827-.634a21.9,21.9,0,0,1-4.55-1.235,4.8,4.8,0,0,1-2.622-4.4c0-3.767,3.224-6.027,8.528-6.027a10.661,10.661,0,0,1,6.329,1.6c1.476,1.116,2.079,2.351,2.32,4.762Z" fill="#638a8a"/>
        <path d="M635.867,154.456a3.06,3.06,0,0,0-1.235-2.532,6.738,6.738,0,0,0-4.31-1.205c-3.254,0-5.394,1.265-5.394,3.164a2.19,2.19,0,0,0,1.265,1.959,8.942,8.942,0,0,0,3.165.9l4.128.723a9.947,9.947,0,0,1,4.34,1.507,4.675,4.675,0,0,1,1.868,3.858,5.836,5.836,0,0,1-3.043,5.062,11.07,11.07,0,0,1-5.907,1.326c-3.857,0-6.57-.9-8.046-2.682-1-1.2-1.356-2.35-1.447-4.61h3.225a3.735,3.735,0,0,0,1.175,3.1c1.115,1.056,2.863,1.568,5.214,1.568,3.435,0,5.605-1.327,5.605-3.466,0-1.477-1.085-2.29-3.647-2.742L629,159.759a21.915,21.915,0,0,1-4.55-1.235,4.8,4.8,0,0,1-2.622-4.4c0-3.767,3.224-6.027,8.528-6.027a10.661,10.661,0,0,1,6.329,1.6c1.476,1.116,2.079,2.351,2.32,4.762Z" fill="#638a8a"/>
      </g>
    </g>
  </g>
</svg>
