<?xml version="1.0" standalone="no"?>
<!DOCTYPE svg PUBLIC "-//W3C//DTD SVG 20010904//EN"
 "http://www.w3.org/TR/2001/REC-SVG-20010904/DTD/svg10.dtd">
<svg version="1.0" xmlns="http://www.w3.org/2000/svg"
 width="135.000000pt" height="135.000000pt" viewBox="0 0 135.000000 135.000000"
 preserveAspectRatio="xMidYMid meet">
<metadata>
Created by potrace 1.11, written by Peter Selinger 2001-2013
</metadata>
<g transform="translate(0.000000,135.000000) scale(0.100000,-0.100000)"
fill="#000000" stroke="none">
<path d="M613 1076 c-15 -28 -66 -127 -114 -221 l-86 -170 -92 -1 c-50 0 -93
-2 -95 -5 -5 -5 -209 -407 -217 -429 -6 -14 5 -15 85 -14 50 1 93 2 96 3 3 1
55 100 115 221 l109 219 96 3 95 3 113 222 112 222 -95 -1 -96 -1 -26 -51z"/>
<path d="M1153 1117 c-4 -7 -56 -106 -114 -222 l-107 -210 -92 -2 c-51 -1 -93
-3 -95 -5 -6 -6 -207 -403 -215 -423 -8 -20 -4 -21 86 -20 51 1 95 3 97 6 3 2
53 102 113 221 l109 218 95 0 95 1 108 217 c59 119 108 220 107 223 0 13 -179
9 -187 -4z"/>
</g>
</svg>
